<?xml version="1.0" standalone="no"?>
<!DOCTYPE svg PUBLIC "-//W3C//DTD SVG 20010904//EN"
 "http://www.w3.org/TR/2001/REC-SVG-20010904/DTD/svg10.dtd">
<svg version="1.0" xmlns="http://www.w3.org/2000/svg"
 width="600.000000pt" height="600.000000pt" viewBox="0 0 600.000000 600.000000"
 preserveAspectRatio="xMidYMid meet">
<metadata>
Created by potrace 1.14, written by Peter Selinger 2001-2017
</metadata>
<g transform="translate(0.000000,600.000000) scale(0.100000,-0.100000)"
fill="#000000" stroke="none">
<path d="M1273 5985 c3 -5 31 -75 62 -155 94 -239 147 -373 160 -405 7 -16 30
-73 50 -125 202 -515 260 -665 291 -748 37 -99 164 -474 169 -502 2 -8 10 -42
19 -75 14 -56 37 -165 51 -245 14 -77 14 -306 0 -385 -35 -204 -121 -371 -305
-590 -42 -50 -240 -246 -324 -320 -43 -39 -84 -75 -90 -80 -6 -6 -49 -42 -96
-80 -47 -38 -87 -72 -90 -76 -5 -6 -561 -448 -640 -509 -25 -19 -47 -37 -50
-40 -3 -3 -101 -82 -218 -175 -287 -228 -265 -209 -217 -190 22 9 103 41 180
71 77 30 149 59 160 64 11 5 74 30 140 56 66 25 251 98 410 161 766 302 1039
391 1338 437 91 15 328 15 392 1 321 -68 560 -241 960 -696 74 -84 485 -591
575 -709 24 -31 305 -385 394 -496 23 -28 55 -68 71 -89 17 -22 38 -48 47 -59
10 -12 -1 27 -26 89 -24 61 -71 182 -106 270 -34 88 -68 174 -75 190 -16 38
-59 148 -61 155 0 3 -6 16 -12 30 -35 76 -282 720 -337 880 -36 104 -104 320
-110 348 -1 9 -8 35 -14 57 -38 146 -55 275 -56 425 0 160 7 211 46 329 106
321 375 612 1104 1190 99 79 194 154 210 167 17 13 161 127 320 254 160 127
305 243 324 258 19 15 39 30 45 34 6 4 8 9 5 12 -4 4 -289 -104 -354 -134 -11
-5 -95 -39 -187 -75 -93 -36 -243 -94 -335 -130 -93 -36 -177 -70 -188 -75
-44 -21 -309 -120 -540 -203 -183 -66 -393 -125 -579 -162 -96 -20 -334 -27
-433 -13 -180 26 -404 141 -593 303 -151 129 -411 418 -685 760 -70 88 -138
172 -151 187 -12 14 -35 44 -51 65 -15 21 -89 115 -164 208 -74 94 -200 251
-278 350 -136 171 -171 213 -158 190z"/>
</g>
</svg>
